<svg width="120" height="120" viewBox="0 0 120 120" fill="none" xmlns="http://www.w3.org/2000/svg">
<g clip-path="url(#clip0_993_2723)">
<g clip-path="url(#clip1_993_2723)">
<g clip-path="url(#clip2_993_2723)">
<mask id="mask0_993_2723" style="mask-type:alpha" maskUnits="userSpaceOnUse" x="0" y="0" width="121" height="120">
<path d="M60.327 119.194C93.0892 119.194 119.648 92.6348 119.648 59.8727C119.648 27.1105 93.0892 0.551514 60.327 0.551514C27.5648 0.551514 1.00586 27.1105 1.00586 59.8727C1.00586 92.6348 27.5648 119.194 60.327 119.194Z" fill="white" stroke="black" stroke-width="0.705235"/>
</mask>
<g mask="url(#mask0_993_2723)">
<path d="M130.851 -13.9056H-4.77148V122.802H130.851V-13.9056Z" fill="white"/>
<path d="M61.14 100.559C82.2624 100.559 99.3854 83.4363 99.3854 62.3139C99.3854 41.1916 82.2624 24.0685 61.14 24.0685C40.0176 24.0685 22.8945 41.1916 22.8945 62.3139C22.8945 83.4363 40.0176 100.559 61.14 100.559Z" fill="white"/>
<path d="M60.327 119.194C93.0892 119.194 119.648 92.6346 119.648 59.8724C119.648 27.1103 93.0892 0.55127 60.327 0.55127C27.5648 0.55127 1.00586 27.1103 1.00586 59.8724C1.00586 92.6346 27.5648 119.194 60.327 119.194Z" stroke="black" stroke-width="0.705235"/>
</g>
<path d="M60.3263 71.8073C66.3185 71.8073 71.1761 66.9497 71.1761 60.9576C71.1761 54.9654 66.3185 50.1078 60.3263 50.1078C54.3342 50.1078 49.4766 54.9654 49.4766 60.9576C49.4766 66.9497 54.3342 71.8073 60.3263 71.8073Z" fill="#ED1C24"/>
<path d="M86.6368 57.3193V59.7524C86.6335 65.455 84.7869 71.0041 81.3719 75.5719C77.9575 80.1396 73.1576 83.4814 67.6887 85.098C62.2199 86.7151 56.3751 86.5209 51.0254 84.5446C45.6758 82.5684 41.1085 78.9158 38.0045 74.1316C34.9006 69.3474 33.4262 63.6876 33.8015 57.9969C34.1767 52.3065 36.3814 46.8897 40.0867 42.5544C43.792 38.2192 48.7994 35.1979 54.3622 33.9411C59.9252 32.6842 65.745 33.2593 70.954 35.5804" stroke="black" stroke-width="0.867982" stroke-linecap="round" stroke-linejoin="round"/>
<path d="M86.6361 38.5951L60.1898 65.0678L52.2559 57.1339" stroke="black" stroke-width="0.867982" stroke-linecap="round" stroke-linejoin="round"/>
</g>
</g>
</g>
<defs>
<clipPath id="clip0_993_2723">
<rect width="119.348" height="119.348" fill="white" transform="translate(0.652344 0.199219)"/>
</clipPath>
<clipPath id="clip1_993_2723">
<rect width="119.348" height="119.348" fill="white" transform="translate(0.652344 0.199158)"/>
</clipPath>
<clipPath id="clip2_993_2723">
<rect width="119.348" height="119.348" fill="white" transform="translate(0.652344 0.199097)"/>
</clipPath>
</defs>
</svg>
