<svg width="96" height="96" viewBox="0 0 96 96" fill="none" xmlns="http://www.w3.org/2000/svg">
  <circle cx="48" cy="48" r="48" fill="#EDFBEF"/>
  <circle cx="48" cy="37" r="17" fill="#EFC19B"/>
  <path d="M28 80C28 67.8497 37.8497 58 50 58H46C58.1503 58 68 67.8497 68 80V80H28Z" fill="#2D6A4F"/>
  <path d="M31 35C31 25.0589 39.0589 17 49 17C58.9411 17 67 25.0589 67 35V39H31V35Z" fill="#253237"/>
  <path d="M41 49C43.2091 51.1283 45.5273 52.1924 48 52.1924C50.4727 52.1924 52.7909 51.1283 55 49" stroke="#8C4F32" stroke-width="2.5" stroke-linecap="round"/>
  <path d="M42 43C43.5 44.4 45.5 45 48 45C50.5 45 52.5 44.4 54 43" stroke="#253237" stroke-width="2.5" stroke-linecap="round"/>
</svg>
