<svg width="96" height="96" viewBox="0 0 96 96" fill="none" xmlns="http://www.w3.org/2000/svg">
  <circle cx="48" cy="48" r="48" fill="#FFF1E8"/>
  <circle cx="48" cy="39" r="17" fill="#F4C7A1"/>
  <path d="M28 80C28 67.8497 37.8497 58 50 58H46C58.1503 58 68 67.8497 68 80V80H28Z" fill="#FF6B6B"/>
  <path d="M28 37C28 25.402 37.402 16 49 16C60.598 16 70 25.402 70 37V45H28V37Z" fill="#5A3E36"/>
  <path d="M35 36C38 23 47 18 58 20C52 15 42 15 36 21C31 26 29 31 29 37L35 36Z" fill="#5A3E36"/>
  <path d="M41 49C43.2091 51.1283 45.5273 52.1924 48 52.1924C50.4727 52.1924 52.7909 51.1283 55 49" stroke="#A35F3D" stroke-width="2.5" stroke-linecap="round"/>
</svg>
