<svg width="96" height="96" viewBox="0 0 96 96" fill="none" xmlns="http://www.w3.org/2000/svg">
  <circle cx="48" cy="48" r="48" fill="#F2ECFF"/>
  <circle cx="48" cy="39" r="17" fill="#F3C9A6"/>
  <path d="M28 80C28 67.8497 37.8497 58 50 58H46C58.1503 58 68 67.8497 68 80V80H28Z" fill="#7B61FF"/>
  <path d="M27 38C27 24.7452 37.7452 14 51 14C64.2548 14 75 24.7452 75 38V46H27V38Z" fill="#2B2D42"/>
  <path d="M38 28C42 22 49 18 56 19C49 14 37 16 31 24C27 30 26 37 26 42L38 28Z" fill="#2B2D42"/>
  <path d="M41 49C43.2091 51.1283 45.5273 52.1924 48 52.1924C50.4727 52.1924 52.7909 51.1283 55 49" stroke="#A35F3D" stroke-width="2.5" stroke-linecap="round"/>
</svg>
